<mxfile host="app.diagrams.net" agent="Mozilla/5.0 (Windows NT 10.0; Win64; x64) AppleWebKit/537.36 (KHTML, like Gecko) Chrome/136.0.0.0 Safari/537.36" version="26.3.0">
  <diagram name="Page-1" id="ngPJtONib-ql9S6rinhF">
    <mxGraphModel dx="1645" dy="1209" grid="0" gridSize="10" guides="1" tooltips="1" connect="1" arrows="1" fold="1" page="0" pageScale="1" pageWidth="850" pageHeight="1100" math="0" shadow="0">
      <root>
        <mxCell id="0" />
        <mxCell id="1" parent="0" />
        <mxCell id="8VFJicTRMiEe6Tttr_aH-1" value="Branch" style="whiteSpace=wrap;html=1;align=center;" vertex="1" parent="1">
          <mxGeometry x="227" y="-50" width="100" height="40" as="geometry" />
        </mxCell>
        <mxCell id="8VFJicTRMiEe6Tttr_aH-99" style="edgeStyle=none;curved=1;rounded=0;orthogonalLoop=1;jettySize=auto;html=1;exitX=0;exitY=0.5;exitDx=0;exitDy=0;entryX=0.5;entryY=0;entryDx=0;entryDy=0;fontSize=12;endArrow=none;startFill=0;shape=link;" edge="1" parent="1" source="8VFJicTRMiEe6Tttr_aH-3" target="8VFJicTRMiEe6Tttr_aH-98">
          <mxGeometry relative="1" as="geometry" />
        </mxCell>
        <mxCell id="8VFJicTRMiEe6Tttr_aH-111" value="1" style="edgeLabel;html=1;align=center;verticalAlign=middle;resizable=0;points=[];fontSize=12;" vertex="1" connectable="0" parent="8VFJicTRMiEe6Tttr_aH-99">
          <mxGeometry x="-0.1495" y="2" relative="1" as="geometry">
            <mxPoint x="-3" y="-2" as="offset" />
          </mxGeometry>
        </mxCell>
        <mxCell id="8VFJicTRMiEe6Tttr_aH-3" value="Customer" style="whiteSpace=wrap;html=1;align=center;" vertex="1" parent="1">
          <mxGeometry x="620" y="115" width="100" height="40" as="geometry" />
        </mxCell>
        <mxCell id="8VFJicTRMiEe6Tttr_aH-4" value="Loan" style="whiteSpace=wrap;html=1;align=center;" vertex="1" parent="1">
          <mxGeometry x="770" y="-58" width="100" height="40" as="geometry" />
        </mxCell>
        <mxCell id="8VFJicTRMiEe6Tttr_aH-5" value="Employee" style="whiteSpace=wrap;html=1;align=center;" vertex="1" parent="1">
          <mxGeometry x="512" y="-40" width="100" height="40" as="geometry" />
        </mxCell>
        <mxCell id="8VFJicTRMiEe6Tttr_aH-6" value="Account" style="whiteSpace=wrap;html=1;align=center;" vertex="1" parent="1">
          <mxGeometry x="508" y="304" width="100" height="40" as="geometry" />
        </mxCell>
        <mxCell id="8VFJicTRMiEe6Tttr_aH-10" value="B-ID" style="ellipse;whiteSpace=wrap;html=1;align=center;fontStyle=4;" vertex="1" parent="1">
          <mxGeometry x="131" y="-103" width="100" height="40" as="geometry" />
        </mxCell>
        <mxCell id="8VFJicTRMiEe6Tttr_aH-50" style="edgeStyle=none;curved=1;rounded=0;orthogonalLoop=1;jettySize=auto;html=1;exitX=1;exitY=0.5;exitDx=0;exitDy=0;entryX=0;entryY=1;entryDx=0;entryDy=0;fontSize=12;startSize=8;endSize=8;" edge="1" parent="1" source="8VFJicTRMiEe6Tttr_aH-13">
          <mxGeometry relative="1" as="geometry">
            <mxPoint x="273" y="221.99999999999977" as="targetPoint" />
          </mxGeometry>
        </mxCell>
        <mxCell id="8VFJicTRMiEe6Tttr_aH-13" value="Date" style="ellipse;whiteSpace=wrap;html=1;align=center;" vertex="1" parent="1">
          <mxGeometry x="176" y="230" width="63" height="29" as="geometry" />
        </mxCell>
        <mxCell id="8VFJicTRMiEe6Tttr_aH-15" style="edgeStyle=none;curved=1;rounded=0;orthogonalLoop=1;jettySize=auto;html=1;exitX=0;exitY=1;exitDx=0;exitDy=0;entryX=1;entryY=0;entryDx=0;entryDy=0;fontSize=12;startSize=8;endSize=8;" edge="1" parent="1" source="8VFJicTRMiEe6Tttr_aH-14" target="8VFJicTRMiEe6Tttr_aH-1">
          <mxGeometry relative="1" as="geometry" />
        </mxCell>
        <mxCell id="8VFJicTRMiEe6Tttr_aH-14" value="Phone No" style="ellipse;shape=doubleEllipse;margin=3;whiteSpace=wrap;html=1;align=center;" vertex="1" parent="1">
          <mxGeometry x="333" y="-101" width="100" height="40" as="geometry" />
        </mxCell>
        <mxCell id="8VFJicTRMiEe6Tttr_aH-17" style="edgeStyle=none;curved=1;rounded=0;orthogonalLoop=1;jettySize=auto;html=1;exitX=1;exitY=1;exitDx=0;exitDy=0;entryX=0.18;entryY=0.025;entryDx=0;entryDy=0;entryPerimeter=0;fontSize=12;startSize=8;endSize=8;" edge="1" parent="1" source="8VFJicTRMiEe6Tttr_aH-10" target="8VFJicTRMiEe6Tttr_aH-1">
          <mxGeometry relative="1" as="geometry" />
        </mxCell>
        <mxCell id="8VFJicTRMiEe6Tttr_aH-27" style="edgeStyle=none;curved=1;rounded=0;orthogonalLoop=1;jettySize=auto;html=1;exitX=0;exitY=0.5;exitDx=0;exitDy=0;entryX=1;entryY=0.5;entryDx=0;entryDy=0;fontSize=12;startSize=8;endSize=8;" edge="1" parent="1" source="8VFJicTRMiEe6Tttr_aH-18" target="8VFJicTRMiEe6Tttr_aH-3">
          <mxGeometry relative="1" as="geometry" />
        </mxCell>
        <mxCell id="8VFJicTRMiEe6Tttr_aH-18" value="Address" style="ellipse;whiteSpace=wrap;html=1;align=center;" vertex="1" parent="1">
          <mxGeometry x="760" y="131" width="71" height="27" as="geometry" />
        </mxCell>
        <mxCell id="8VFJicTRMiEe6Tttr_aH-28" style="edgeStyle=none;curved=1;rounded=0;orthogonalLoop=1;jettySize=auto;html=1;exitX=0;exitY=0.5;exitDx=0;exitDy=0;entryX=1;entryY=0.25;entryDx=0;entryDy=0;fontSize=12;startSize=8;endSize=8;" edge="1" parent="1" source="8VFJicTRMiEe6Tttr_aH-19" target="8VFJicTRMiEe6Tttr_aH-3">
          <mxGeometry relative="1" as="geometry" />
        </mxCell>
        <mxCell id="8VFJicTRMiEe6Tttr_aH-19" value="Name" style="ellipse;whiteSpace=wrap;html=1;align=center;" vertex="1" parent="1">
          <mxGeometry x="760" y="91" width="80" height="28" as="geometry" />
        </mxCell>
        <mxCell id="8VFJicTRMiEe6Tttr_aH-20" value="C-ID" style="ellipse;whiteSpace=wrap;html=1;align=center;fontStyle=4" vertex="1" parent="1">
          <mxGeometry x="615" y="193" width="65.5" height="27" as="geometry" />
        </mxCell>
        <mxCell id="8VFJicTRMiEe6Tttr_aH-21" style="edgeStyle=none;curved=1;rounded=0;orthogonalLoop=1;jettySize=auto;html=1;exitX=0.5;exitY=0;exitDx=0;exitDy=0;fontSize=12;startSize=8;endSize=8;" edge="1" parent="1" source="8VFJicTRMiEe6Tttr_aH-13" target="8VFJicTRMiEe6Tttr_aH-13">
          <mxGeometry relative="1" as="geometry" />
        </mxCell>
        <mxCell id="8VFJicTRMiEe6Tttr_aH-24" value="DOB" style="ellipse;whiteSpace=wrap;html=1;align=center;dashed=1;" vertex="1" parent="1">
          <mxGeometry x="688" y="193" width="79" height="27" as="geometry" />
        </mxCell>
        <mxCell id="8VFJicTRMiEe6Tttr_aH-26" style="edgeStyle=none;curved=1;rounded=0;orthogonalLoop=1;jettySize=auto;html=1;exitX=0;exitY=0;exitDx=0;exitDy=0;entryX=1;entryY=1;entryDx=0;entryDy=0;fontSize=12;startSize=8;endSize=8;" edge="1" parent="1" source="8VFJicTRMiEe6Tttr_aH-25" target="8VFJicTRMiEe6Tttr_aH-3">
          <mxGeometry relative="1" as="geometry" />
        </mxCell>
        <mxCell id="8VFJicTRMiEe6Tttr_aH-25" value="Phone No" style="ellipse;shape=doubleEllipse;margin=3;whiteSpace=wrap;html=1;align=center;" vertex="1" parent="1">
          <mxGeometry x="756" y="167" width="86" height="32" as="geometry" />
        </mxCell>
        <mxCell id="8VFJicTRMiEe6Tttr_aH-29" style="edgeStyle=none;curved=1;rounded=0;orthogonalLoop=1;jettySize=auto;html=1;exitX=0.5;exitY=0;exitDx=0;exitDy=0;entryX=0.598;entryY=0.957;entryDx=0;entryDy=0;entryPerimeter=0;fontSize=12;startSize=8;endSize=8;" edge="1" parent="1" source="8VFJicTRMiEe6Tttr_aH-20" target="8VFJicTRMiEe6Tttr_aH-3">
          <mxGeometry relative="1" as="geometry" />
        </mxCell>
        <mxCell id="8VFJicTRMiEe6Tttr_aH-30" style="edgeStyle=none;curved=1;rounded=0;orthogonalLoop=1;jettySize=auto;html=1;exitX=0.5;exitY=0;exitDx=0;exitDy=0;entryX=0.89;entryY=0.975;entryDx=0;entryDy=0;entryPerimeter=0;fontSize=12;startSize=8;endSize=8;" edge="1" parent="1" source="8VFJicTRMiEe6Tttr_aH-24" target="8VFJicTRMiEe6Tttr_aH-3">
          <mxGeometry relative="1" as="geometry" />
        </mxCell>
        <mxCell id="8VFJicTRMiEe6Tttr_aH-39" style="edgeStyle=none;curved=1;rounded=0;orthogonalLoop=1;jettySize=auto;html=1;exitX=1;exitY=1;exitDx=0;exitDy=0;entryX=1;entryY=0.25;entryDx=0;entryDy=0;fontSize=12;startSize=8;endSize=8;" edge="1" parent="1" source="8VFJicTRMiEe6Tttr_aH-31" target="8VFJicTRMiEe6Tttr_aH-6">
          <mxGeometry relative="1" as="geometry" />
        </mxCell>
        <mxCell id="8VFJicTRMiEe6Tttr_aH-31" value="AccNUM" style="ellipse;whiteSpace=wrap;html=1;align=center;fontStyle=4" vertex="1" parent="1">
          <mxGeometry x="648.5" y="294" width="77" height="27" as="geometry" />
        </mxCell>
        <mxCell id="8VFJicTRMiEe6Tttr_aH-41" style="edgeStyle=none;curved=1;rounded=0;orthogonalLoop=1;jettySize=auto;html=1;exitX=0;exitY=1;exitDx=0;exitDy=0;entryX=1;entryY=0;entryDx=0;entryDy=0;fontSize=12;startSize=8;endSize=8;" edge="1" parent="1" source="8VFJicTRMiEe6Tttr_aH-32" target="8VFJicTRMiEe6Tttr_aH-34">
          <mxGeometry relative="1" as="geometry" />
        </mxCell>
        <mxCell id="8VFJicTRMiEe6Tttr_aH-32" value="Saving" style="ellipse;whiteSpace=wrap;html=1;align=center;" vertex="1" parent="1">
          <mxGeometry x="733.5" y="301" width="57" height="38" as="geometry" />
        </mxCell>
        <mxCell id="8VFJicTRMiEe6Tttr_aH-33" value="Checking" style="ellipse;whiteSpace=wrap;html=1;align=center;" vertex="1" parent="1">
          <mxGeometry x="736.5" y="348" width="65" height="32" as="geometry" />
        </mxCell>
        <mxCell id="8VFJicTRMiEe6Tttr_aH-38" style="edgeStyle=none;curved=1;rounded=0;orthogonalLoop=1;jettySize=auto;html=1;exitX=0;exitY=0.5;exitDx=0;exitDy=0;entryX=1;entryY=0.75;entryDx=0;entryDy=0;fontSize=12;startSize=8;endSize=8;" edge="1" parent="1" source="8VFJicTRMiEe6Tttr_aH-34" target="8VFJicTRMiEe6Tttr_aH-6">
          <mxGeometry relative="1" as="geometry" />
        </mxCell>
        <mxCell id="8VFJicTRMiEe6Tttr_aH-34" value="Type" style="ellipse;whiteSpace=wrap;html=1;align=center;" vertex="1" parent="1">
          <mxGeometry x="658.5" y="328" width="60" height="28" as="geometry" />
        </mxCell>
        <mxCell id="8VFJicTRMiEe6Tttr_aH-37" style="edgeStyle=none;curved=1;rounded=0;orthogonalLoop=1;jettySize=auto;html=1;exitX=0.5;exitY=0;exitDx=0;exitDy=0;fontSize=12;startSize=8;endSize=8;entryX=1;entryY=1;entryDx=0;entryDy=0;" edge="1" parent="1" source="8VFJicTRMiEe6Tttr_aH-35" target="8VFJicTRMiEe6Tttr_aH-6">
          <mxGeometry relative="1" as="geometry">
            <mxPoint x="632.5" y="362" as="targetPoint" />
          </mxGeometry>
        </mxCell>
        <mxCell id="8VFJicTRMiEe6Tttr_aH-35" value="Date of Creation" style="ellipse;whiteSpace=wrap;html=1;align=center;" vertex="1" parent="1">
          <mxGeometry x="591.5" y="362" width="100" height="40" as="geometry" />
        </mxCell>
        <mxCell id="8VFJicTRMiEe6Tttr_aH-40" style="edgeStyle=none;curved=1;rounded=0;orthogonalLoop=1;jettySize=auto;html=1;exitX=0.5;exitY=1;exitDx=0;exitDy=0;entryX=1;entryY=0;entryDx=0;entryDy=0;fontSize=12;startSize=8;endSize=8;" edge="1" parent="1" source="8VFJicTRMiEe6Tttr_aH-36" target="8VFJicTRMiEe6Tttr_aH-6">
          <mxGeometry relative="1" as="geometry" />
        </mxCell>
        <mxCell id="8VFJicTRMiEe6Tttr_aH-36" value="Balance" style="ellipse;whiteSpace=wrap;html=1;align=center;dashed=1;" vertex="1" parent="1">
          <mxGeometry x="612" y="260" width="63" height="28" as="geometry" />
        </mxCell>
        <mxCell id="8VFJicTRMiEe6Tttr_aH-42" style="edgeStyle=none;curved=1;rounded=0;orthogonalLoop=1;jettySize=auto;html=1;exitX=0;exitY=0.5;exitDx=0;exitDy=0;entryX=1;entryY=1;entryDx=0;entryDy=0;fontSize=12;startSize=8;endSize=8;" edge="1" parent="1" source="8VFJicTRMiEe6Tttr_aH-33" target="8VFJicTRMiEe6Tttr_aH-34">
          <mxGeometry relative="1" as="geometry" />
        </mxCell>
        <mxCell id="8VFJicTRMiEe6Tttr_aH-43" value="Type" style="ellipse;whiteSpace=wrap;html=1;align=center;" vertex="1" parent="1">
          <mxGeometry x="802.5" y="-117" width="60" height="26" as="geometry" />
        </mxCell>
        <mxCell id="8VFJicTRMiEe6Tttr_aH-49" style="edgeStyle=none;curved=1;rounded=0;orthogonalLoop=1;jettySize=auto;html=1;exitX=1;exitY=0.5;exitDx=0;exitDy=0;entryX=0;entryY=0.5;entryDx=0;entryDy=0;fontSize=12;startSize=8;endSize=8;" edge="1" parent="1" source="8VFJicTRMiEe6Tttr_aH-44">
          <mxGeometry relative="1" as="geometry">
            <mxPoint x="273" y="201.99999999999977" as="targetPoint" />
          </mxGeometry>
        </mxCell>
        <mxCell id="8VFJicTRMiEe6Tttr_aH-44" value="T-ID" style="ellipse;whiteSpace=wrap;html=1;align=center;fontStyle=4" vertex="1" parent="1">
          <mxGeometry x="180.5" y="182" width="61" height="36" as="geometry" />
        </mxCell>
        <mxCell id="8VFJicTRMiEe6Tttr_aH-48" style="edgeStyle=none;curved=1;rounded=0;orthogonalLoop=1;jettySize=auto;html=1;exitX=1;exitY=1;exitDx=0;exitDy=0;entryX=0;entryY=0;entryDx=0;entryDy=0;fontSize=12;startSize=8;endSize=8;" edge="1" parent="1" source="8VFJicTRMiEe6Tttr_aH-46">
          <mxGeometry relative="1" as="geometry">
            <mxPoint x="273" y="181.99999999999977" as="targetPoint" />
          </mxGeometry>
        </mxCell>
        <mxCell id="8VFJicTRMiEe6Tttr_aH-46" value="Type" style="ellipse;whiteSpace=wrap;html=1;align=center;" vertex="1" parent="1">
          <mxGeometry x="180.5" y="136" width="68" height="31" as="geometry" />
        </mxCell>
        <mxCell id="8VFJicTRMiEe6Tttr_aH-47" value="Amount" style="ellipse;whiteSpace=wrap;html=1;align=center;dashed=1;" vertex="1" parent="1">
          <mxGeometry x="230" y="259" width="72" height="29" as="geometry" />
        </mxCell>
        <mxCell id="8VFJicTRMiEe6Tttr_aH-51" style="edgeStyle=none;curved=1;rounded=0;orthogonalLoop=1;jettySize=auto;html=1;exitX=0.5;exitY=0;exitDx=0;exitDy=0;entryX=0.17;entryY=1.025;entryDx=0;entryDy=0;entryPerimeter=0;fontSize=12;startSize=8;endSize=8;" edge="1" parent="1" source="8VFJicTRMiEe6Tttr_aH-47">
          <mxGeometry relative="1" as="geometry">
            <mxPoint x="290" y="222.99999999999977" as="targetPoint" />
          </mxGeometry>
        </mxCell>
        <mxCell id="8VFJicTRMiEe6Tttr_aH-57" style="edgeStyle=none;curved=1;rounded=0;orthogonalLoop=1;jettySize=auto;html=1;exitX=1;exitY=1;exitDx=0;exitDy=0;entryX=0.25;entryY=0;entryDx=0;entryDy=0;fontSize=12;startSize=8;endSize=8;" edge="1" parent="1" source="8VFJicTRMiEe6Tttr_aH-52" target="8VFJicTRMiEe6Tttr_aH-4">
          <mxGeometry relative="1" as="geometry" />
        </mxCell>
        <mxCell id="8VFJicTRMiEe6Tttr_aH-52" value="&lt;u&gt;L-ID&lt;/u&gt;" style="ellipse;whiteSpace=wrap;html=1;align=center;" vertex="1" parent="1">
          <mxGeometry x="737.5" y="-112" width="56" height="28" as="geometry" />
        </mxCell>
        <mxCell id="8VFJicTRMiEe6Tttr_aH-60" style="edgeStyle=none;curved=1;rounded=0;orthogonalLoop=1;jettySize=auto;html=1;exitX=0;exitY=0;exitDx=0;exitDy=0;entryX=1;entryY=0;entryDx=0;entryDy=0;fontSize=12;startSize=8;endSize=8;" edge="1" parent="1" source="8VFJicTRMiEe6Tttr_aH-55" target="8VFJicTRMiEe6Tttr_aH-4">
          <mxGeometry relative="1" as="geometry" />
        </mxCell>
        <mxCell id="8VFJicTRMiEe6Tttr_aH-55" value="Issue date" style="ellipse;whiteSpace=wrap;html=1;align=center;" vertex="1" parent="1">
          <mxGeometry x="900.5" y="-65" width="62" height="33" as="geometry" />
        </mxCell>
        <mxCell id="8VFJicTRMiEe6Tttr_aH-56" value="Amount" style="ellipse;whiteSpace=wrap;html=1;align=center;dashed=1;" vertex="1" parent="1">
          <mxGeometry x="865.5" y="-102" width="72" height="29" as="geometry" />
        </mxCell>
        <mxCell id="8VFJicTRMiEe6Tttr_aH-58" style="edgeStyle=none;curved=1;rounded=0;orthogonalLoop=1;jettySize=auto;html=1;exitX=0.5;exitY=1;exitDx=0;exitDy=0;entryX=0.5;entryY=0;entryDx=0;entryDy=0;fontSize=12;startSize=8;endSize=8;" edge="1" parent="1" source="8VFJicTRMiEe6Tttr_aH-43" target="8VFJicTRMiEe6Tttr_aH-4">
          <mxGeometry relative="1" as="geometry" />
        </mxCell>
        <mxCell id="8VFJicTRMiEe6Tttr_aH-59" style="edgeStyle=none;curved=1;rounded=0;orthogonalLoop=1;jettySize=auto;html=1;exitX=0;exitY=1;exitDx=0;exitDy=0;entryX=0.75;entryY=0;entryDx=0;entryDy=0;fontSize=12;startSize=8;endSize=8;" edge="1" parent="1" source="8VFJicTRMiEe6Tttr_aH-56" target="8VFJicTRMiEe6Tttr_aH-4">
          <mxGeometry relative="1" as="geometry">
            <mxPoint x="863" y="19" as="sourcePoint" />
            <mxPoint x="840" y="-18" as="targetPoint" />
          </mxGeometry>
        </mxCell>
        <mxCell id="8VFJicTRMiEe6Tttr_aH-73" style="edgeStyle=none;curved=1;rounded=0;orthogonalLoop=1;jettySize=auto;html=1;exitX=0;exitY=1;exitDx=0;exitDy=0;entryX=0.5;entryY=0;entryDx=0;entryDy=0;fontSize=12;startSize=8;endSize=8;" edge="1" parent="1" source="8VFJicTRMiEe6Tttr_aH-61" target="8VFJicTRMiEe6Tttr_aH-5">
          <mxGeometry relative="1" as="geometry" />
        </mxCell>
        <mxCell id="8VFJicTRMiEe6Tttr_aH-61" value="Name" style="ellipse;whiteSpace=wrap;html=1;align=center;" vertex="1" parent="1">
          <mxGeometry x="561" y="-103" width="63" height="25" as="geometry" />
        </mxCell>
        <mxCell id="8VFJicTRMiEe6Tttr_aH-74" style="edgeStyle=none;curved=1;rounded=0;orthogonalLoop=1;jettySize=auto;html=1;exitX=0;exitY=1;exitDx=0;exitDy=0;entryX=0.85;entryY=0;entryDx=0;entryDy=0;fontSize=12;startSize=8;endSize=8;entryPerimeter=0;" edge="1" parent="1" source="8VFJicTRMiEe6Tttr_aH-62" target="8VFJicTRMiEe6Tttr_aH-5">
          <mxGeometry relative="1" as="geometry" />
        </mxCell>
        <mxCell id="8VFJicTRMiEe6Tttr_aH-62" value="&lt;u&gt;E-ID&lt;/u&gt;" style="ellipse;whiteSpace=wrap;html=1;align=center;" vertex="1" parent="1">
          <mxGeometry x="621" y="-84" width="72" height="26" as="geometry" />
        </mxCell>
        <mxCell id="8VFJicTRMiEe6Tttr_aH-64" value="Position" style="ellipse;whiteSpace=wrap;html=1;align=center;" vertex="1" parent="1">
          <mxGeometry x="490" y="-108" width="66" height="27" as="geometry" />
        </mxCell>
        <mxCell id="8VFJicTRMiEe6Tttr_aH-71" style="edgeStyle=none;curved=1;rounded=0;orthogonalLoop=1;jettySize=auto;html=1;exitX=0.5;exitY=1;exitDx=0;exitDy=0;entryX=0.5;entryY=0;entryDx=0;entryDy=0;fontSize=12;startSize=8;endSize=8;" edge="1" parent="1" source="8VFJicTRMiEe6Tttr_aH-70" target="8VFJicTRMiEe6Tttr_aH-1">
          <mxGeometry relative="1" as="geometry" />
        </mxCell>
        <mxCell id="8VFJicTRMiEe6Tttr_aH-70" value="Address" style="ellipse;shape=doubleEllipse;margin=3;whiteSpace=wrap;html=1;align=center;" vertex="1" parent="1">
          <mxGeometry x="227" y="-122" width="100" height="40" as="geometry" />
        </mxCell>
        <mxCell id="8VFJicTRMiEe6Tttr_aH-72" style="edgeStyle=none;curved=1;rounded=0;orthogonalLoop=1;jettySize=auto;html=1;exitX=0.5;exitY=1;exitDx=0;exitDy=0;entryX=0.25;entryY=0;entryDx=0;entryDy=0;fontSize=12;startSize=8;endSize=8;" edge="1" parent="1" source="8VFJicTRMiEe6Tttr_aH-64" target="8VFJicTRMiEe6Tttr_aH-5">
          <mxGeometry relative="1" as="geometry" />
        </mxCell>
        <mxCell id="8VFJicTRMiEe6Tttr_aH-76" style="edgeStyle=none;curved=1;rounded=0;orthogonalLoop=1;jettySize=auto;html=1;exitX=0;exitY=0.5;exitDx=0;exitDy=0;entryX=1;entryY=0.75;entryDx=0;entryDy=0;fontSize=12;endArrow=none;startFill=0;shape=link;" edge="1" parent="1" source="8VFJicTRMiEe6Tttr_aH-75" target="8VFJicTRMiEe6Tttr_aH-1">
          <mxGeometry relative="1" as="geometry" />
        </mxCell>
        <mxCell id="8VFJicTRMiEe6Tttr_aH-104" value="M" style="edgeLabel;html=1;align=center;verticalAlign=middle;resizable=0;points=[];fontSize=12;" vertex="1" connectable="0" parent="8VFJicTRMiEe6Tttr_aH-76">
          <mxGeometry x="0.4439" y="5" relative="1" as="geometry">
            <mxPoint x="717" y="512" as="offset" />
          </mxGeometry>
        </mxCell>
        <mxCell id="8VFJicTRMiEe6Tttr_aH-106" value="M" style="edgeLabel;html=1;align=center;verticalAlign=middle;resizable=0;points=[];fontSize=12;" vertex="1" connectable="0" parent="8VFJicTRMiEe6Tttr_aH-76">
          <mxGeometry x="0.0357" relative="1" as="geometry">
            <mxPoint as="offset" />
          </mxGeometry>
        </mxCell>
        <mxCell id="8VFJicTRMiEe6Tttr_aH-77" value="N" style="edgeStyle=none;curved=1;rounded=0;orthogonalLoop=1;jettySize=auto;html=1;exitX=1;exitY=0.5;exitDx=0;exitDy=0;entryX=0;entryY=0.5;entryDx=0;entryDy=0;fontSize=12;endArrow=none;startFill=0;shape=link;" edge="1" parent="1" source="8VFJicTRMiEe6Tttr_aH-75" target="8VFJicTRMiEe6Tttr_aH-5">
          <mxGeometry relative="1" as="geometry" />
        </mxCell>
        <mxCell id="8VFJicTRMiEe6Tttr_aH-105" value="M" style="edgeLabel;html=1;align=center;verticalAlign=middle;resizable=0;points=[];fontSize=12;" vertex="1" connectable="0" parent="8VFJicTRMiEe6Tttr_aH-77">
          <mxGeometry x="-0.1071" relative="1" as="geometry">
            <mxPoint as="offset" />
          </mxGeometry>
        </mxCell>
        <mxCell id="8VFJicTRMiEe6Tttr_aH-75" value="Work" style="shape=rhombus;perimeter=rhombusPerimeter;whiteSpace=wrap;html=1;align=center;" vertex="1" parent="1">
          <mxGeometry x="383" y="-41" width="81" height="42" as="geometry" />
        </mxCell>
        <mxCell id="8VFJicTRMiEe6Tttr_aH-79" style="edgeStyle=none;curved=1;rounded=0;orthogonalLoop=1;jettySize=auto;html=1;exitX=0.5;exitY=0;exitDx=0;exitDy=0;entryX=1;entryY=1;entryDx=0;entryDy=0;fontSize=12;startSize=8;endSize=8;endArrow=none;startFill=0;" edge="1" parent="1" source="8VFJicTRMiEe6Tttr_aH-78" target="8VFJicTRMiEe6Tttr_aH-5">
          <mxGeometry relative="1" as="geometry" />
        </mxCell>
        <mxCell id="8VFJicTRMiEe6Tttr_aH-108" value="M" style="edgeLabel;html=1;align=center;verticalAlign=middle;resizable=0;points=[];fontSize=12;" vertex="1" connectable="0" parent="8VFJicTRMiEe6Tttr_aH-79">
          <mxGeometry x="-0.0709" relative="1" as="geometry">
            <mxPoint as="offset" />
          </mxGeometry>
        </mxCell>
        <mxCell id="8VFJicTRMiEe6Tttr_aH-80" style="edgeStyle=none;curved=1;rounded=0;orthogonalLoop=1;jettySize=auto;html=1;exitX=0.5;exitY=1;exitDx=0;exitDy=0;entryX=0;entryY=0;entryDx=0;entryDy=0;fontSize=12;startSize=8;endSize=8;endArrow=none;startFill=0;" edge="1" parent="1" source="8VFJicTRMiEe6Tttr_aH-78" target="8VFJicTRMiEe6Tttr_aH-3">
          <mxGeometry relative="1" as="geometry" />
        </mxCell>
        <mxCell id="8VFJicTRMiEe6Tttr_aH-114" value="N" style="edgeLabel;html=1;align=center;verticalAlign=middle;resizable=0;points=[];fontSize=12;" vertex="1" connectable="0" parent="8VFJicTRMiEe6Tttr_aH-80">
          <mxGeometry x="0.39" y="2" relative="1" as="geometry">
            <mxPoint x="-4" y="-4" as="offset" />
          </mxGeometry>
        </mxCell>
        <mxCell id="8VFJicTRMiEe6Tttr_aH-78" value="Assist" style="shape=rhombus;perimeter=rhombusPerimeter;whiteSpace=wrap;html=1;align=center;" vertex="1" parent="1">
          <mxGeometry x="581" y="38" width="61" height="38" as="geometry" />
        </mxCell>
        <mxCell id="8VFJicTRMiEe6Tttr_aH-82" style="edgeStyle=none;curved=1;rounded=0;orthogonalLoop=1;jettySize=auto;html=1;exitX=0;exitY=0.5;exitDx=0;exitDy=0;entryX=1;entryY=0.5;entryDx=0;entryDy=0;fontSize=12;startSize=8;endSize=8;endArrow=none;startFill=0;" edge="1" parent="1" source="8VFJicTRMiEe6Tttr_aH-81" target="8VFJicTRMiEe6Tttr_aH-5">
          <mxGeometry relative="1" as="geometry" />
        </mxCell>
        <mxCell id="8VFJicTRMiEe6Tttr_aH-121" value="1" style="edgeLabel;html=1;align=center;verticalAlign=middle;resizable=0;points=[];fontSize=12;" vertex="1" connectable="0" parent="8VFJicTRMiEe6Tttr_aH-82">
          <mxGeometry x="0.1351" y="-1" relative="1" as="geometry">
            <mxPoint as="offset" />
          </mxGeometry>
        </mxCell>
        <mxCell id="8VFJicTRMiEe6Tttr_aH-83" style="edgeStyle=none;curved=1;rounded=0;orthogonalLoop=1;jettySize=auto;html=1;exitX=1;exitY=0.5;exitDx=0;exitDy=0;entryX=0;entryY=0.5;entryDx=0;entryDy=0;fontSize=12;endArrow=none;startFill=0;shape=link;" edge="1" parent="1" source="8VFJicTRMiEe6Tttr_aH-81" target="8VFJicTRMiEe6Tttr_aH-4">
          <mxGeometry relative="1" as="geometry" />
        </mxCell>
        <mxCell id="8VFJicTRMiEe6Tttr_aH-109" value="M" style="edgeLabel;html=1;align=center;verticalAlign=middle;resizable=0;points=[];fontSize=12;" vertex="1" connectable="0" parent="8VFJicTRMiEe6Tttr_aH-83">
          <mxGeometry x="0.0044" y="1" relative="1" as="geometry">
            <mxPoint as="offset" />
          </mxGeometry>
        </mxCell>
        <mxCell id="8VFJicTRMiEe6Tttr_aH-81" value="Handle" style="shape=rhombus;perimeter=rhombusPerimeter;whiteSpace=wrap;html=1;align=center;" vertex="1" parent="1">
          <mxGeometry x="669.5" y="-37" width="61" height="38" as="geometry" />
        </mxCell>
        <mxCell id="8VFJicTRMiEe6Tttr_aH-85" value="N" style="edgeStyle=none;curved=1;rounded=0;orthogonalLoop=1;jettySize=auto;html=1;exitX=0;exitY=1;exitDx=0;exitDy=0;entryX=0.75;entryY=0;entryDx=0;entryDy=0;fontSize=12;startSize=8;endSize=8;endArrow=none;startFill=0;" edge="1" parent="1" source="8VFJicTRMiEe6Tttr_aH-84" target="8VFJicTRMiEe6Tttr_aH-3">
          <mxGeometry relative="1" as="geometry" />
        </mxCell>
        <mxCell id="8VFJicTRMiEe6Tttr_aH-84" value="Provide" style="shape=rhombus;perimeter=rhombusPerimeter;whiteSpace=wrap;html=1;align=center;" vertex="1" parent="1">
          <mxGeometry x="713" y="34" width="61" height="38" as="geometry" />
        </mxCell>
        <mxCell id="8VFJicTRMiEe6Tttr_aH-86" style="edgeStyle=none;curved=1;rounded=0;orthogonalLoop=1;jettySize=auto;html=1;exitX=1;exitY=0;exitDx=0;exitDy=0;entryX=0.368;entryY=1.018;entryDx=0;entryDy=0;entryPerimeter=0;fontSize=12;endArrow=none;startFill=0;shape=link;" edge="1" parent="1" source="8VFJicTRMiEe6Tttr_aH-84" target="8VFJicTRMiEe6Tttr_aH-4">
          <mxGeometry relative="1" as="geometry" />
        </mxCell>
        <mxCell id="8VFJicTRMiEe6Tttr_aH-112" value="M" style="edgeLabel;html=1;align=center;verticalAlign=middle;resizable=0;points=[];fontSize=12;" vertex="1" connectable="0" parent="8VFJicTRMiEe6Tttr_aH-86">
          <mxGeometry x="0.01" y="-3" relative="1" as="geometry">
            <mxPoint as="offset" />
          </mxGeometry>
        </mxCell>
        <mxCell id="8VFJicTRMiEe6Tttr_aH-88" value="Transfer" style="ellipse;whiteSpace=wrap;html=1;align=center;" vertex="1" parent="1">
          <mxGeometry x="137" y="86" width="67" height="26" as="geometry" />
        </mxCell>
        <mxCell id="8VFJicTRMiEe6Tttr_aH-89" value="Deposit" style="ellipse;whiteSpace=wrap;html=1;align=center;" vertex="1" parent="1">
          <mxGeometry x="212" y="97" width="54" height="25" as="geometry" />
        </mxCell>
        <mxCell id="8VFJicTRMiEe6Tttr_aH-101" style="edgeStyle=none;curved=1;rounded=0;orthogonalLoop=1;jettySize=auto;html=1;exitX=1;exitY=0.5;exitDx=0;exitDy=0;entryX=0;entryY=0.5;entryDx=0;entryDy=0;fontSize=12;startSize=8;endSize=8;" edge="1" parent="1" source="8VFJicTRMiEe6Tttr_aH-90" target="8VFJicTRMiEe6Tttr_aH-46">
          <mxGeometry relative="1" as="geometry" />
        </mxCell>
        <mxCell id="8VFJicTRMiEe6Tttr_aH-90" value="Withdraw" style="ellipse;whiteSpace=wrap;html=1;align=center;" vertex="1" parent="1">
          <mxGeometry x="86" y="131" width="67" height="36" as="geometry" />
        </mxCell>
        <mxCell id="8VFJicTRMiEe6Tttr_aH-91" value="Transaction" style="shape=ext;margin=3;double=1;whiteSpace=wrap;html=1;align=center;" vertex="1" parent="1">
          <mxGeometry x="279" y="180" width="100" height="40" as="geometry" />
        </mxCell>
        <mxCell id="8VFJicTRMiEe6Tttr_aH-93" style="edgeStyle=none;curved=1;rounded=0;orthogonalLoop=1;jettySize=auto;html=1;exitX=0;exitY=0;exitDx=0;exitDy=0;entryX=0.75;entryY=1;entryDx=0;entryDy=0;fontSize=12;endArrow=none;startFill=0;shape=link;" edge="1" parent="1" source="8VFJicTRMiEe6Tttr_aH-92" target="8VFJicTRMiEe6Tttr_aH-91">
          <mxGeometry relative="1" as="geometry" />
        </mxCell>
        <mxCell id="8VFJicTRMiEe6Tttr_aH-115" value="M" style="edgeLabel;html=1;align=center;verticalAlign=middle;resizable=0;points=[];fontSize=12;" vertex="1" connectable="0" parent="8VFJicTRMiEe6Tttr_aH-93">
          <mxGeometry x="-0.0538" y="-1" relative="1" as="geometry">
            <mxPoint as="offset" />
          </mxGeometry>
        </mxCell>
        <mxCell id="8VFJicTRMiEe6Tttr_aH-94" style="edgeStyle=none;curved=1;rounded=0;orthogonalLoop=1;jettySize=auto;html=1;exitX=1;exitY=1;exitDx=0;exitDy=0;entryX=0;entryY=0.25;entryDx=0;entryDy=0;fontSize=12;startSize=8;endSize=8;endArrow=none;startFill=0;" edge="1" parent="1" source="8VFJicTRMiEe6Tttr_aH-92" target="8VFJicTRMiEe6Tttr_aH-6">
          <mxGeometry relative="1" as="geometry" />
        </mxCell>
        <mxCell id="8VFJicTRMiEe6Tttr_aH-122" value="1" style="edgeLabel;html=1;align=center;verticalAlign=middle;resizable=0;points=[];fontSize=12;" vertex="1" connectable="0" parent="8VFJicTRMiEe6Tttr_aH-94">
          <mxGeometry x="0.2488" y="3" relative="1" as="geometry">
            <mxPoint x="-4" y="2" as="offset" />
          </mxGeometry>
        </mxCell>
        <mxCell id="8VFJicTRMiEe6Tttr_aH-92" value="Have" style="shape=rhombus;double=1;perimeter=rhombusPerimeter;whiteSpace=wrap;html=1;align=center;" vertex="1" parent="1">
          <mxGeometry x="414" y="252" width="64" height="42" as="geometry" />
        </mxCell>
        <mxCell id="8VFJicTRMiEe6Tttr_aH-98" value="Have" style="shape=rhombus;perimeter=rhombusPerimeter;whiteSpace=wrap;html=1;align=center;" vertex="1" parent="1">
          <mxGeometry x="539.5" y="163" width="59" height="40" as="geometry" />
        </mxCell>
        <mxCell id="8VFJicTRMiEe6Tttr_aH-100" style="edgeStyle=none;curved=1;rounded=0;orthogonalLoop=1;jettySize=auto;html=1;exitX=0.5;exitY=1;exitDx=0;exitDy=0;entryX=0.607;entryY=0.026;entryDx=0;entryDy=0;entryPerimeter=0;fontSize=12;endArrow=none;startFill=0;shape=link;" edge="1" parent="1" source="8VFJicTRMiEe6Tttr_aH-98" target="8VFJicTRMiEe6Tttr_aH-6">
          <mxGeometry relative="1" as="geometry" />
        </mxCell>
        <mxCell id="8VFJicTRMiEe6Tttr_aH-110" value="M" style="edgeLabel;html=1;align=center;verticalAlign=middle;resizable=0;points=[];fontSize=12;" vertex="1" connectable="0" parent="8VFJicTRMiEe6Tttr_aH-100">
          <mxGeometry x="0.47" y="1" relative="1" as="geometry">
            <mxPoint as="offset" />
          </mxGeometry>
        </mxCell>
        <mxCell id="8VFJicTRMiEe6Tttr_aH-102" style="edgeStyle=none;curved=1;rounded=0;orthogonalLoop=1;jettySize=auto;html=1;exitX=0.5;exitY=1;exitDx=0;exitDy=0;entryX=0.283;entryY=0.027;entryDx=0;entryDy=0;entryPerimeter=0;fontSize=12;startSize=8;endSize=8;" edge="1" parent="1" source="8VFJicTRMiEe6Tttr_aH-88" target="8VFJicTRMiEe6Tttr_aH-46">
          <mxGeometry relative="1" as="geometry" />
        </mxCell>
        <mxCell id="8VFJicTRMiEe6Tttr_aH-103" style="edgeStyle=none;curved=1;rounded=0;orthogonalLoop=1;jettySize=auto;html=1;exitX=0.5;exitY=1;exitDx=0;exitDy=0;entryX=0.716;entryY=0.102;entryDx=0;entryDy=0;entryPerimeter=0;fontSize=12;startSize=8;endSize=8;" edge="1" parent="1" source="8VFJicTRMiEe6Tttr_aH-89" target="8VFJicTRMiEe6Tttr_aH-46">
          <mxGeometry relative="1" as="geometry" />
        </mxCell>
        <mxCell id="8VFJicTRMiEe6Tttr_aH-117" value="Action_Type" style="ellipse;whiteSpace=wrap;html=1;align=center;" vertex="1" parent="1">
          <mxGeometry x="640.5" y="12" width="72.5" height="33" as="geometry" />
        </mxCell>
        <mxCell id="8VFJicTRMiEe6Tttr_aH-118" style="edgeStyle=none;curved=1;rounded=0;orthogonalLoop=1;jettySize=auto;html=1;exitX=0.5;exitY=0;exitDx=0;exitDy=0;entryX=0.43;entryY=0.828;entryDx=0;entryDy=0;entryPerimeter=0;fontSize=12;startSize=8;endSize=8;" edge="1" parent="1" source="8VFJicTRMiEe6Tttr_aH-117" target="8VFJicTRMiEe6Tttr_aH-81">
          <mxGeometry relative="1" as="geometry" />
        </mxCell>
      </root>
    </mxGraphModel>
  </diagram>
</mxfile>
